# Blender 3.4.1
# www.blender.org
mtllib Monica.mtl
o Mesa
v 4.841805 3.461325 -2.253452
v 4.841805 3.151198 -2.253452
v 4.901469 3.461325 2.520642
v 4.901469 3.151198 2.520642
v 0.289955 3.461325 -2.217480
v 0.289955 3.151198 -2.217480
v 0.389158 3.461325 2.623577
v 0.389158 3.151198 2.623577
v -0.430477 3.151198 0.150414
v 2.588135 3.151198 -3.073934
v 4.841805 3.306262 -2.253452
v 0.389158 3.306262 2.623577
v 4.901469 3.306262 2.520642
v 0.289955 3.306262 -2.217480
v 2.588135 3.461325 3.374761
v 5.606747 3.461325 0.150414
v 2.588135 3.151198 3.374761
v -0.430477 3.461325 0.150414
v 2.588135 3.461325 -3.073934
v 5.606747 3.151198 0.150414
v 2.588135 3.306262 -3.073934
v 5.606747 3.306262 0.150414
v 2.588135 3.151198 0.150414
v -0.430477 3.306262 0.150414
v 2.588135 3.306262 3.374761
v 2.588135 3.461325 0.150414
v -0.430477 3.151198 1.762587
v 1.078829 3.151198 -3.073934
v 4.841805 3.228730 -2.253452
v 0.389158 3.383793 2.623577
v 4.901469 3.228730 2.520642
v 0.289955 3.228730 -2.217480
v 1.078829 3.461325 3.374761
v 5.606747 3.461325 1.762587
v 4.097441 3.151198 3.374761
v -0.430477 3.461325 -1.461760
v 4.097441 3.461325 -3.073934
v 5.606747 3.151198 -1.461760
v -0.430477 3.151198 -1.461760
v 4.097441 3.151198 -3.073934
v 4.841805 3.383793 -2.253452
v 0.389158 3.228730 2.623577
v 4.901469 3.383793 2.520642
v 0.289955 3.383793 -2.217480
v 4.097441 3.461325 3.374761
v 5.606747 3.461325 -1.461760
v 1.078829 3.151198 3.374761
v -0.430477 3.461325 1.762587
v 1.078829 3.461325 -3.073934
v 5.606747 3.151198 1.762587
v 4.097441 3.306262 -3.073934
v 1.078829 3.306262 -3.073934
v 2.588135 3.228730 -3.073934
v 2.588135 3.383793 -3.073934
v 5.606747 3.306262 1.762587
v 5.606747 3.306262 -1.461760
v 5.606747 3.228730 0.150414
v 5.606747 3.383793 0.150414
v 2.588135 3.151198 1.762587
v 2.588135 3.151198 -1.461760
v 1.078829 3.151198 0.150414
v 4.097441 3.151198 0.150414
v -0.430477 3.306262 -1.461760
v -0.430477 3.306262 1.762587
v -0.430477 3.228730 0.150414
v -0.430477 3.383793 0.150414
v 1.078829 3.306262 3.374761
v 4.097441 3.306262 3.374761
v 2.588135 3.228730 3.374761
v 2.588135 3.383793 3.374761
v 2.588135 3.461325 1.762587
v 2.588135 3.461325 -1.461760
v 4.097441 3.461325 0.150414
v 1.078829 3.461325 0.150414
v 1.078829 3.461325 -1.461760
v 4.097441 3.461325 -1.461760
v 4.097441 3.461325 1.762587
v 4.097441 3.383793 3.374761
v 4.097441 3.228730 3.374761
v 1.078829 3.228730 3.374761
v -0.430477 3.383793 1.762587
v -0.430477 3.228730 1.762587
v -0.430477 3.228730 -1.461760
v 5.606747 3.383793 -1.461760
v 5.606747 3.228730 -1.461760
v 5.606747 3.228730 1.762587
v 1.078829 3.383793 -3.073934
v 1.078829 3.228730 -3.073934
v 4.097441 3.228730 -3.073934
v 4.097441 3.383793 -3.073934
v 5.606747 3.383793 1.762587
v -0.430477 3.383793 -1.461760
v 1.078829 3.383793 3.374761
v 1.078829 3.461325 1.762587
v 2.588135 3.151198 -0.655673
v 3.342788 3.151198 0.150414
v 2.588135 3.151198 0.956500
v 1.833482 3.151198 0.150414
v 3.923512 3.095743 -1.229680
v 3.880168 3.095743 -1.275978
v 4.261673 3.151198 -1.637186
v 1.296101 3.095743 -1.275978
v 1.252757 3.095743 -1.229680
v 0.914596 3.151198 -1.637186
v 1.252757 3.095743 1.530507
v 1.296101 3.095743 1.576805
v 0.914596 3.151198 1.938013
v 3.923512 3.095743 1.530507
v 4.261673 3.151198 1.938013
v 3.880168 3.095743 1.576805
v 3.923512 3.095743 -0.887754
v 4.261673 3.151198 -0.480247
v 3.880168 3.095743 -0.841456
v 3.560060 3.095743 -1.275978
v 3.516716 3.095743 -1.229680
v 3.178555 3.151198 -1.637186
v 1.252757 3.095743 -0.887754
v 1.296101 3.095743 -0.841456
v 0.914596 3.151198 -0.480247
v 1.616210 3.095743 -1.275978
v 1.997715 3.151198 -1.637186
v 1.659554 3.095743 -1.229680
v 1.252757 3.095743 1.188581
v 0.914596 3.151198 0.781074
v 1.296101 3.095743 1.142283
v 1.616210 3.095743 1.576805
v 1.659554 3.095743 1.530507
v 1.997715 3.151198 1.938013
v 3.923512 3.095743 1.188581
v 3.880168 3.095743 1.142283
v 4.261673 3.151198 0.781074
v 3.560060 3.095743 1.576805
v 3.178555 3.151198 1.938013
v 3.516716 3.095743 1.530507
v 3.516716 3.095743 1.188581
v 3.178555 3.151198 0.781074
v 3.560060 3.095743 1.142283
v 1.659554 3.095743 1.188581
v 1.616210 3.095743 1.142283
v 1.997715 3.151198 0.781074
v 3.516716 3.095743 -0.887754
v 3.560060 3.095743 -0.841456
v 3.178555 3.151198 -0.480247
v 1.659554 3.095743 -0.887754
v 1.997715 3.151198 -0.480247
v 1.616210 3.095743 -0.841456
v 3.909149 0.081256 -1.207870
v 3.859751 0.025827 -1.207870
v 3.859751 0.081256 -1.260636
v 1.316519 0.081256 -1.260636
v 1.316519 0.025827 -1.207870
v 1.267120 0.081256 -1.207870
v 1.267120 0.081256 1.508697
v 1.316519 0.025827 1.508697
v 1.316519 0.081256 1.561463
v 3.909149 0.081256 1.508697
v 3.859751 0.081256 1.561463
v 3.859751 0.025827 1.508697
v 3.909149 0.081256 -0.909563
v 3.859751 0.081256 -0.856798
v 3.859751 0.025827 -0.909563
v 3.580478 0.081256 -1.260636
v 3.580478 0.025827 -1.207870
v 3.531079 0.081256 -1.207870
v 1.267120 0.081256 -0.909563
v 1.316519 0.025827 -0.909563
v 1.316519 0.081256 -0.856798
v 1.595792 0.081256 -1.260636
v 1.645190 0.081256 -1.207870
v 1.595792 0.025827 -1.207870
v 1.267120 0.081256 1.210390
v 1.316519 0.081256 1.157625
v 1.316519 0.025827 1.210390
v 1.595792 0.081256 1.561463
v 1.595792 0.025827 1.508697
v 1.645190 0.081256 1.508697
v 3.909149 0.081256 1.210390
v 3.859751 0.025827 1.210390
v 3.859751 0.081256 1.157625
v 3.580478 0.081256 1.561463
v 3.531079 0.081256 1.508697
v 3.580478 0.025827 1.508697
v 3.531079 0.081256 1.210390
v 3.580478 0.081256 1.157625
v 3.580478 0.025827 1.210390
v 1.645190 0.081256 1.210390
v 1.595792 0.025827 1.210390
v 1.595792 0.081256 1.157625
v 3.531079 0.081256 -0.909563
v 3.580478 0.025827 -0.909563
v 3.580478 0.081256 -0.856798
v 1.645190 0.081256 -0.909563
v 1.595792 0.081256 -0.856798
v 1.595792 0.025827 -0.909563
v 0.933043 3.109800 -1.617482
v 1.979267 3.109800 -1.617482
v 0.933043 3.109800 1.918309
v 0.933043 3.109800 0.800779
v 1.979267 3.109800 1.918309
v 4.243226 3.109800 0.800779
v 4.243226 3.109800 1.918309
v 4.243226 3.109800 -1.617482
v 4.243226 3.109800 -0.499952
v 3.197002 3.109800 -1.617482
v 0.933043 3.109800 -0.499952
v 3.197002 3.109800 1.918309
v 3.197002 3.109800 0.800779
v 1.979267 3.109800 0.800779
v 3.197002 3.109800 -0.499952
v 1.979267 3.109800 -0.499952
vn -0.0000 1.0000 -0.0000
vn -0.7366 -0.0000 0.6763
vn -0.7238 -0.0000 -0.6900
vn -0.0000 -0.0051 1.0000
vn 0.7321 -0.0000 0.6812
vn 0.7406 -0.0000 -0.6719
vn -0.0000 -0.0000 -1.0000
vn 1.0000 -0.0000 -0.0000
vn -0.0000 -1.0000 -0.0000
vn 1.0000 -0.0048 -0.0000
vn -1.0000 -0.0000 -0.0000
vn -0.0000 -0.0000 1.0000
vn 0.7281 -0.0000 0.6854
vn -0.7243 -0.0000 0.6895
vn -0.0000 -0.0051 -1.0000
vn -1.0000 -0.0048 -0.0000
vn 0.7192 -0.0000 -0.6949
vn -0.7355 -0.0000 -0.6775
vn 0.0206 -0.9996 -0.0193
vn -0.0206 -0.9996 -0.0193
vn -0.0206 -0.9996 0.0193
vn 0.0206 -0.9996 0.0193
vn 0.6119 -0.5453 -0.5729
vn -0.6119 -0.5453 -0.5729
vn -0.6119 -0.5453 0.5729
vn 0.6119 -0.5453 0.5729
vn -0.0000 -0.9992 -0.0411
vn -0.0439 -0.9990 -0.0000
vn -0.0000 -0.9992 0.0411
vn 0.0439 -0.9990 -0.0000
vn -0.0000 -0.6895 -0.7243
vn -0.7466 -0.6653 -0.0000
vn -0.0000 -0.6895 0.7243
vn 0.7466 -0.6653 -0.0000
vn 0.7300 -0.0084 0.6834
vn 0.7300 -0.0084 -0.6834
vn -0.7300 -0.0084 -0.6834
vn -0.7300 -0.0084 0.6834
vn -0.0000 -0.4298 -0.9029
vn -0.9134 -0.4070 -0.0000
vn -0.0000 -0.4298 0.9029
vn 0.9134 -0.4070 -0.0000
vt 0.625000 0.500000
vt 0.375000 0.500000
vt 0.625000 0.750000
vt 0.375000 0.750000
vt 0.875000 0.500000
vt 0.625000 0.250000
vt 0.125000 0.500000
vt 0.375000 0.250000
vt 0.875000 0.750000
vt 0.625000 1.000000
vt 0.625000 0.000000
vt 0.375000 1.000000
vt 0.375000 0.000000
vt 0.125000 0.750000
vt 0.375000 0.125000
vt 0.125000 0.625000
vt 0.375000 0.375000
vt 0.250000 0.500000
vt 0.500000 0.500000
vt 0.500000 0.000000
vt 0.500000 1.000000
vt 0.500000 0.750000
vt 0.500000 0.250000
vt 0.625000 0.875000
vt 0.750000 0.750000
vt 0.625000 0.625000
vt 0.375000 0.875000
vt 0.250000 0.750000
vt 0.625000 0.125000
vt 0.875000 0.625000
vt 0.750000 0.500000
vt 0.625000 0.375000
vt 0.375000 0.625000
vt 0.500000 0.375000
vt 0.500000 0.625000
vt 0.250000 0.625000
vt 0.500000 0.125000
vt 0.500000 0.875000
vt 0.750000 0.625000
vt 0.375000 0.062500
vt 0.125000 0.687500
vt 0.375000 0.312500
vt 0.187500 0.500000
vt 0.437500 0.500000
vt 0.562500 0.000000
vt 0.562500 1.000000
vt 0.437500 0.750000
vt 0.437500 0.250000
vt 0.625000 0.937500
vt 0.812500 0.750000
vt 0.625000 0.687500
vt 0.375000 0.812500
vt 0.312500 0.750000
vt 0.875000 0.562500
vt 0.625000 0.187500
vt 0.687500 0.500000
vt 0.625000 0.437500
vt 0.375000 0.562500
vt 0.375000 0.187500
vt 0.125000 0.562500
vt 0.375000 0.437500
vt 0.312500 0.500000
vt 0.562500 0.500000
vt 0.437500 1.000000
vt 0.437500 0.000000
vt 0.562500 0.750000
vt 0.562500 0.250000
vt 0.687500 0.750000
vt 0.625000 0.812500
vt 0.625000 0.562500
vt 0.375000 0.937500
vt 0.187500 0.750000
vt 0.625000 0.062500
vt 0.875000 0.687500
vt 0.812500 0.500000
vt 0.625000 0.312500
vt 0.375000 0.687500
vt 0.500000 0.437500
vt 0.500000 0.312500
vt 0.437500 0.375000
vt 0.562500 0.375000
vt 0.500000 0.687500
vt 0.500000 0.562500
vt 0.437500 0.625000
vt 0.562500 0.625000
vt 0.250000 0.687500
vt 0.250000 0.562500
vt 0.187500 0.625000
vt 0.312500 0.625000
vt 0.500000 0.187500
vt 0.500000 0.062500
vt 0.437500 0.125000
vt 0.562500 0.125000
vt 0.500000 0.937500
vt 0.500000 0.812500
vt 0.437500 0.875000
vt 0.562500 0.875000
vt 0.750000 0.687500
vt 0.750000 0.562500
vt 0.687500 0.625000
vt 0.812500 0.625000
vt 0.812500 0.562500
vt 0.687500 0.562500
vt 0.687500 0.687500
vt 0.562500 0.812500
vt 0.437500 0.812500
vt 0.437500 0.937500
vt 0.562500 0.062500
vt 0.437500 0.062500
vt 0.437500 0.187500
vt 0.562500 0.562500
vt 0.437500 0.562500
vt 0.437500 0.687500
vt 0.562500 0.312500
vt 0.437500 0.312500
vt 0.437500 0.437500
vt 0.562500 0.437500
vt 0.562500 0.687500
vt 0.562500 0.187500
vt 0.562500 0.937500
vt 0.812500 0.687500
vt 0.250000 0.593750
vt 0.281250 0.625000
vt 0.250000 0.656250
vt 0.218750 0.625000
vt 0.312500 0.569301
vt 0.305699 0.562500
vt 0.320970 0.554023
vt 0.319301 0.555699
vt 0.194301 0.562500
vt 0.187500 0.569301
vt 0.179143 0.553967
vt 0.180699 0.555699
vt 0.187500 0.680699
vt 0.194301 0.687500
vt 0.178929 0.695820
vt 0.180699 0.694301
vt 0.312500 0.680699
vt 0.320803 0.696004
vt 0.319301 0.694301
vt 0.305699 0.687500
vt 0.312500 0.586949
vt 0.319301 0.600551
vt 0.305699 0.593750
vt 0.288051 0.562500
vt 0.281250 0.569301
vt 0.274449 0.555699
vt 0.187500 0.586949
vt 0.194301 0.593750
vt 0.180699 0.600551
vt 0.211949 0.562500
vt 0.225551 0.555699
vt 0.218750 0.569301
vt 0.187500 0.663051
vt 0.180699 0.649449
vt 0.194301 0.656250
vt 0.211949 0.687500
vt 0.218750 0.680699
vt 0.225551 0.694301
vt 0.312500 0.663051
vt 0.305699 0.656250
vt 0.319301 0.649449
vt 0.288051 0.687500
vt 0.274449 0.694301
vt 0.281250 0.680699
vt 0.281250 0.663051
vt 0.274449 0.649449
vt 0.288051 0.656250
vt 0.218750 0.663051
vt 0.211949 0.656250
vt 0.225551 0.649449
vt 0.281250 0.586949
vt 0.288051 0.593750
vt 0.274449 0.600551
vt 0.218750 0.586949
vt 0.225551 0.600551
vt 0.211949 0.593750
vt 0.312500 0.569301
vt 0.305699 0.569301
vt 0.305699 0.562500
vt 0.194301 0.562500
vt 0.194301 0.569301
vt 0.187500 0.569301
vt 0.187500 0.680699
vt 0.194301 0.680699
vt 0.194301 0.687500
vt 0.312500 0.680699
vt 0.305699 0.687500
vt 0.305699 0.680699
vt 0.312500 0.586949
vt 0.305699 0.593750
vt 0.305699 0.586949
vt 0.288051 0.562500
vt 0.288051 0.569301
vt 0.281250 0.569301
vt 0.187500 0.586949
vt 0.194301 0.586949
vt 0.194301 0.593750
vt 0.211949 0.562500
vt 0.218750 0.569301
vt 0.211949 0.569301
vt 0.187500 0.663051
vt 0.194301 0.656250
vt 0.194301 0.663051
vt 0.211949 0.687500
vt 0.211949 0.680699
vt 0.218750 0.680699
vt 0.312500 0.663051
vt 0.305699 0.663051
vt 0.305699 0.656250
vt 0.288051 0.687500
vt 0.281250 0.680699
vt 0.288051 0.680699
vt 0.281250 0.663051
vt 0.288051 0.656250
vt 0.288051 0.663051
vt 0.218750 0.663051
vt 0.211949 0.663051
vt 0.211949 0.656250
vt 0.281250 0.586949
vt 0.288051 0.586949
vt 0.288051 0.593750
vt 0.218750 0.586949
vt 0.211949 0.593750
vt 0.211949 0.586949
vt 0.181845 0.556463
vt 0.224405 0.556463
vt 0.181463 0.693155
vt 0.181463 0.650595
vt 0.224405 0.693537
vt 0.318537 0.650595
vt 0.318537 0.693155
vt 0.318537 0.556845
vt 0.318537 0.599405
vt 0.275595 0.556463
vt 0.181463 0.599405
vt 0.275595 0.693537
vt 0.275213 0.650595
vt 0.224787 0.650595
vt 0.275213 0.599405
vt 0.224787 0.599405
s 0
usemtl Material.020
f 94/121/1 48/74/1 7/9/1 33/50/1
f 93/120/2 33/49/2 7/10/2 30/46/2
f 92/119/3 36/55/3 5/6/3 44/67/3
f 110/141/4 132/163/4 180/211/4 157/188/4
f 91/118/5 34/51/5 3/3/5 43/66/5
f 90/117/6 37/57/6 1/1/6 41/63/6
f 89/116/6 51/78/6 11/19/6 29/44/6
f 88/115/7 52/79/7 21/34/7 53/80/7
f 87/114/7 49/76/7 19/32/7 54/81/7
f 86/113/5 55/82/5 13/22/5 31/47/5
f 85/112/8 56/83/8 22/35/8 57/84/8
f 84/111/8 46/70/8 16/26/8 58/85/8
f 126/157/4 106/135/4 155/186/4 174/205/4
f 163/194/9 148/179/9 161/192/9 190/221/9
f 99/126/10 111/142/10 159/190/10 147/178/10
f 83/110/3 63/90/3 14/23/3 32/48/3
f 82/109/11 64/91/11 24/37/11 65/92/11
f 81/108/11 48/73/11 18/29/11 66/93/11
f 80/107/2 67/94/2 12/21/2 42/64/2
f 79/106/12 68/95/12 25/38/12 69/96/12
f 78/105/12 45/69/12 15/24/12 70/97/12
f 77/104/1 71/98/1 15/25/1 45/68/1
f 76/103/1 72/99/1 26/39/1 73/100/1
f 75/102/1 36/54/1 18/30/1 74/101/1
f 72/99/1 75/102/1 74/101/1 26/39/1
f 19/31/1 49/75/1 75/102/1 72/99/1
f 49/75/1 5/5/1 36/54/1 75/102/1
f 46/70/1 76/103/1 73/100/1 16/26/1
f 1/1/1 37/56/1 76/103/1 46/70/1
f 37/56/1 19/31/1 72/99/1 76/103/1
f 34/51/1 77/104/1 45/68/1 3/3/1
f 16/26/1 73/100/1 77/104/1 34/51/1
f 73/100/1 26/39/1 71/98/1 77/104/1
f 68/95/12 78/105/12 70/97/12 25/38/12
f 13/22/13 43/66/13 78/105/13 68/95/13
f 43/66/13 3/3/13 45/69/13 78/105/13
f 35/52/12 79/106/12 69/96/12 17/27/12
f 4/4/13 31/47/13 79/106/13 35/52/13
f 31/47/13 13/22/13 68/95/13 79/106/13
f 47/71/2 80/107/2 42/64/2 8/12/2
f 17/27/12 69/96/12 80/107/12 47/71/12
f 69/96/12 25/38/12 67/94/12 80/107/12
f 64/91/11 81/108/11 66/93/11 24/37/11
f 12/20/14 30/45/14 81/108/14 64/91/14
f 30/45/14 7/11/14 48/73/14 81/108/14
f 27/40/11 82/109/11 65/92/11 9/15/11
f 8/13/14 42/65/14 82/109/14 27/40/14
f 42/65/14 12/20/14 64/91/14 82/109/14
f 39/59/3 83/110/3 32/48/3 6/8/3
f 9/15/11 65/92/11 83/110/11 39/59/11
f 65/92/11 24/37/11 63/90/11 83/110/11
f 113/144/4 142/173/4 191/222/4 160/191/4
f 114/145/15 100/127/15 149/180/15 162/193/15
f 101/129/9 38/58/9 20/33/9 62/89/9 112/143/9
f 117/148/16 103/131/16 152/183/16 165/196/16
f 102/130/15 120/151/15 168/199/15 150/181/15
f 6/7/9 28/43/9 104/132/9 39/60/9
f 105/134/16 123/154/16 171/202/16 153/184/16
f 107/137/9 128/159/9 59/86/9 17/28/9 47/72/9
f 138/169/10 127/158/10 176/207/10 186/217/10
f 56/83/8 84/111/8 58/85/8 22/35/8
f 11/19/17 41/63/17 84/111/17 56/83/17
f 41/63/17 1/1/17 46/70/17 84/111/17
f 38/58/8 85/112/8 57/84/8 20/33/8
f 2/2/17 29/44/17 85/112/17 38/58/17
f 29/44/17 11/19/17 56/83/17 85/112/17
f 50/77/5 86/113/5 31/47/5 4/4/5
f 20/33/8 57/84/8 86/113/8 50/77/8
f 57/84/8 22/35/8 55/82/8 86/113/8
f 52/79/7 87/114/7 54/81/7 21/34/7
f 14/23/18 44/67/18 87/114/18 52/79/18
f 44/67/18 5/6/18 49/76/18 87/114/18
f 28/42/7 88/115/7 53/80/7 10/17/7
f 6/8/18 32/48/18 88/115/18 28/42/18
f 32/48/18 14/23/18 52/79/18 88/115/18
f 40/61/6 89/116/6 29/44/6 2/2/6
f 10/17/7 53/80/7 89/116/7 40/61/7
f 53/80/7 21/34/7 51/78/7 89/116/7
f 51/78/6 90/117/6 41/63/6 11/19/6
f 21/34/7 54/81/7 90/117/7 51/78/7
f 54/81/7 19/32/7 37/57/7 90/117/7
f 55/82/5 91/118/5 43/66/5 13/22/5
f 22/35/8 58/85/8 91/118/8 55/82/8
f 58/85/8 16/26/8 34/51/8 91/118/8
f 62/89/9 20/33/9 50/77/9 109/140/9 131/162/9
f 9/16/9 61/88/9 124/155/9 107/137/9 27/41/9
f 109/139/9 50/77/9 4/4/9 35/53/9
f 63/90/3 92/119/3 44/67/3 14/23/3
f 24/37/11 66/93/11 92/119/11 63/90/11
f 66/93/11 18/29/11 36/55/11 92/119/11
f 67/94/2 93/120/2 30/46/2 12/21/2
f 25/38/12 70/97/12 93/120/12 67/94/12
f 70/97/12 15/24/12 33/49/12 93/120/12
f 71/98/1 94/121/1 33/50/1 15/25/1
f 26/39/1 74/101/1 94/121/1 71/98/1
f 74/101/1 18/30/1 48/74/1 94/121/1
f 134/165/16 135/166/16 183/214/16 181/212/16
f 98/125/9 23/36/9 97/124/9 140/171/9
f 137/168/15 130/161/15 179/210/15 184/215/15
f 60/87/9 116/147/9 143/174/9 95/122/9
f 125/156/15 139/170/15 188/219/15 172/203/15
f 95/122/9 143/174/9 96/123/9 23/36/9
f 145/176/9 95/122/9 23/36/9 98/125/9
f 141/172/16 115/146/16 164/195/16 189/220/16
f 97/124/9 136/167/9 133/164/9 59/86/9
f 146/177/4 118/149/4 167/198/4 193/224/4
f 143/174/9 112/143/9 62/89/9 96/123/9
f 122/153/10 144/175/10 192/223/10 169/200/10
f 185/216/9 178/209/9 158/189/9 182/213/9
f 151/182/9 170/201/9 194/225/9 166/197/9
f 173/204/9 187/218/9 175/206/9 154/185/9
f 96/123/9 62/89/9 131/162/9 136/167/9
f 61/88/9 98/125/9 140/171/9 124/155/9
f 59/86/9 133/164/9 109/140/9 35/53/9 17/28/9
f 140/171/9 97/124/9 59/86/9 128/159/9
f 129/160/10 108/138/10 156/187/10 177/208/10
f 121/152/9 60/87/9 95/122/9 145/176/9
f 10/18/9 40/62/9 101/129/9 116/147/9 60/87/9
f 23/36/9 96/123/9 136/167/9 97/124/9
f 28/43/9 10/18/9 60/87/9 121/152/9 104/133/9
f 27/41/9 107/136/9 47/72/9 8/14/9
f 39/60/9 104/133/9 119/150/9 61/88/9 9/16/9
f 119/150/9 145/176/9 98/125/9 61/88/9
f 99/126/19 100/127/19 202/233/19
f 102/130/20 103/131/20 195/226/20
f 105/134/21 106/135/21 197/228/21
f 108/138/22 201/232/22 110/141/22
f 111/142/22 203/234/22 113/144/22
f 114/145/20 115/146/20 204/235/20
f 117/148/21 118/149/21 205/236/21
f 120/151/19 196/227/19 122/153/19
f 123/154/20 198/229/20 125/156/20
f 126/157/22 127/158/22 199/230/22
f 129/160/19 130/161/19 200/231/19
f 132/163/21 206/237/21 134/165/21
f 135/166/20 207/238/20 137/168/20
f 138/169/19 139/170/19 208/239/19
f 141/172/21 142/173/21 209/240/21
f 144/175/22 210/241/22 146/177/22
f 147/178/23 148/179/23 149/180/23
f 150/181/24 151/182/24 152/183/24
f 153/184/25 154/185/25 155/186/25
f 156/187/26 157/188/26 158/189/26
f 159/190/26 160/191/26 161/192/26
f 162/193/24 163/194/24 164/195/24
f 165/196/25 166/197/25 167/198/25
f 168/199/23 169/200/23 170/201/23
f 171/202/24 172/203/24 173/204/24
f 174/205/26 175/206/26 176/207/26
f 177/208/23 178/209/23 179/210/23
f 180/211/25 181/212/25 182/213/25
f 183/214/24 184/215/24 185/216/24
f 186/217/23 187/218/23 188/219/23
f 189/220/25 190/221/25 191/222/25
f 192/223/26 193/224/26 194/225/26
f 120/151/27 102/130/27 195/226/27 196/227/27
f 123/154/28 105/134/28 197/228/28 198/229/28
f 199/230/29 197/228/29 106/135/29 126/157/29
f 200/231/30 201/232/30 108/138/30 129/160/30
f 202/233/30 203/234/30 111/142/30 99/126/30
f 100/127/27 114/145/27 204/235/27 202/233/27
f 103/131/28 117/148/28 205/236/28 195/226/28
f 201/232/29 206/237/29 132/163/29 110/141/29
f 135/166/28 134/165/28 206/237/28 207/238/28
f 130/161/27 137/168/27 207/238/27 200/231/27
f 208/239/30 199/230/30 127/158/30 138/169/30
f 139/170/27 125/156/27 198/229/27 208/239/27
f 115/146/28 141/172/28 209/240/28 204/235/28
f 203/234/29 209/240/29 142/173/29 113/144/29
f 196/227/30 210/241/30 144/175/30 122/153/30
f 210/241/29 205/236/29 118/149/29 146/177/29
f 170/201/31 151/182/31 150/181/31 168/199/31
f 173/204/32 154/185/32 153/184/32 171/202/32
f 174/205/33 155/186/33 154/185/33 175/206/33
f 177/208/34 156/187/34 158/189/34 178/209/34
f 147/178/34 159/190/34 161/192/34 148/179/34
f 148/179/31 163/194/31 162/193/31 149/180/31
f 151/182/32 166/197/32 165/196/32 152/183/32
f 157/188/33 180/211/33 182/213/33 158/189/33
f 185/216/32 182/213/32 181/212/32 183/214/32
f 178/209/31 185/216/31 184/215/31 179/210/31
f 186/217/34 176/207/34 175/206/34 187/218/34
f 187/218/31 173/204/31 172/203/31 188/219/31
f 163/194/32 190/221/32 189/220/32 164/195/32
f 160/191/33 191/222/33 190/221/33 161/192/33
f 169/200/34 192/223/34 194/225/34 170/201/34
f 193/224/33 167/198/33 166/197/33 194/225/33
f 110/141/35 157/188/35 156/187/35 108/138/35
f 179/210/36 130/161/36 129/160/36 177/208/36
f 183/214/37 135/166/37 137/168/37 184/215/37
f 141/172/38 189/220/38 191/222/38 142/173/38
f 159/190/35 111/142/35 113/144/35 160/191/35
f 125/156/37 172/203/37 171/202/37 123/154/37
f 155/186/38 106/135/38 105/134/38 153/184/38
f 126/157/35 174/205/35 176/207/35 127/158/35
f 188/219/36 139/170/36 138/169/36 186/217/36
f 146/177/35 193/224/35 192/223/35 144/175/35
f 168/199/36 120/151/36 122/153/36 169/200/36
f 134/165/38 181/212/38 180/211/38 132/163/38
f 117/148/38 165/196/38 167/198/38 118/149/38
f 149/180/36 100/127/36 99/126/36 147/178/36
f 164/195/37 115/146/37 114/145/37 162/193/37
f 102/130/37 150/181/37 152/183/37 103/131/37
f 40/62/9 2/2/9 38/58/9 101/128/9
f 196/227/39 195/226/39 104/133/39 121/152/39
f 198/229/40 197/228/40 107/137/40 124/155/40
f 197/228/41 199/230/41 128/159/41 107/137/41
f 201/232/42 200/231/42 131/162/42 109/140/42
f 203/234/42 202/233/42 101/129/42 112/143/42
f 202/233/39 204/235/39 116/147/39 101/129/39
f 195/226/40 205/236/40 119/150/40 104/133/40
f 206/237/41 201/232/41 109/140/41 133/164/41
f 207/238/40 206/237/40 133/164/40 136/167/40
f 200/231/39 207/238/39 136/167/39 131/162/39
f 199/230/42 208/239/42 140/171/42 128/159/42
f 208/239/39 198/229/39 124/155/39 140/171/39
f 204/235/40 209/240/40 143/174/40 116/147/40
f 209/240/41 203/234/41 112/143/41 143/174/41
f 210/241/42 196/227/42 121/152/42 145/176/42
f 205/236/41 210/241/41 145/176/41 119/150/41
