# Blender v3.4.1 OBJ File: ''
# www.blender.org
mtllib Chimenea.mtl
o Assem1_-_wooden_case_part-1.001
v 3.183911 3.670449 1.640808
v 3.237332 3.670450 -0.371330
v 3.183911 1.135907 1.640808
v 3.237332 1.135907 -0.371330
v 3.183911 1.050328 1.640808
v 3.237332 1.050328 -0.371330
v -3.626661 1.050328 1.459995
v -3.573241 1.050328 -0.552147
v -3.626661 1.135907 1.459995
v -3.573241 1.135907 -0.552147
v -3.626661 3.670449 1.459995
v -3.573241 3.670450 -0.552147
v -6.259195 1.135906 2.206783
v -6.162441 1.135908 -1.437569
v -6.259195 0.280119 2.206783
v -6.162441 0.280120 -1.437569
v 5.773110 1.135906 2.526230
v 5.773110 0.280119 2.526230
v 5.869864 1.135907 -1.118122
v 5.869864 0.280120 -1.118122
v -4.230618 1.135907 1.443962
v 3.841288 1.135907 -0.355297
v -4.177198 1.135907 -0.568180
v 3.787867 1.135907 1.656845
v 3.841288 4.045582 -0.355297
v 3.787867 4.045582 1.656845
v -4.177198 4.045582 -0.568180
v -4.230618 4.045582 1.443962
v -3.623371 1.050328 1.336067
v 3.187201 1.050328 1.516880
v -3.626661 1.050328 1.459995
v 3.183911 1.050328 1.640808
v -3.623371 3.670449 1.336067
v -3.626661 3.670449 1.459995
v 3.187201 3.670449 1.516880
v 3.183911 3.670449 1.640808
vt 0.331770 0.974630
vt 0.221180 0.974630
vt 0.331770 0.752557
vt 0.221180 0.752557
vt 0.331770 0.745059
vt 0.221180 0.745059
vt 0.221180 0.974630
vt 0.110590 0.974630
vt 0.221180 0.967131
vt 0.110590 0.967131
vt 0.221180 0.745059
vt 0.110590 0.745059
vt 0.849769 0.918238
vt 0.842958 0.918238
vt 0.849769 0.496517
vt 0.842958 0.496517
vt 0.856581 0.918238
vt 0.849769 0.918238
vt 0.856581 0.496517
vt 0.849769 0.496517
vt 0.621778 0.918238
vt 0.621778 0.496517
vt 0.732368 0.918238
vt 0.732368 0.496517
vt 0.800482 0.751458
vt 0.800482 0.971955
vt 0.732368 0.751458
vt 0.732368 0.971955
vt 0.931886 0.745059
vt 0.931886 0.000000
vt 1.000000 0.745059
vt 1.000000 0.000000
vt 0.399884 0.745059
vt 0.399884 0.965556
vt 0.331770 0.745059
vt 0.331770 0.965556
vt 0.931886 0.000000
vt 0.931886 0.745059
vt 0.863772 0.000000
vt 0.863772 0.745059
vt 0.200299 0.000000
vt 0.400597 0.000000
vt 0.355743 0.124271
vt 0.400597 0.745059
vt 0.200299 0.745059
vt 0.245153 0.620788
vt 0.245153 0.124271
vt 0.245153 0.161669
vt 0.245153 0.583390
vt 0.355743 0.620788
vt 0.355743 0.583390
vt 0.355743 0.161669
vt 0.200299 0.745059
vt 0.000000 0.745059
vt 0.200299 0.000000
vt 0.000000 0.000000
vt 0.000000 1.000000
vt 0.000000 0.745059
vt 0.110590 1.000000
vt 0.110590 0.745059
vt 0.863772 0.459119
vt 0.863772 0.496517
vt 0.662042 0.459119
vt 0.632185 0.496517
vt 0.662042 0.037398
vt 0.632185 0.000000
vt 0.863772 0.037398
vt 0.863772 0.000000
vt 0.632185 0.459119
vt 0.632185 0.496517
vt 0.430455 0.459119
vt 0.400597 0.496517
vt 0.430455 0.037398
vt 0.400597 0.000000
vt 0.632185 0.037398
vt 0.632185 0.000000
vt 0.400597 0.496517
vt 0.511187 0.496517
vt 0.400597 0.993034
vt 0.511187 0.993034
vt 0.842958 0.496517
vt 0.842958 0.751458
vt 0.732368 0.496517
vt 0.732368 0.751458
vt 0.511187 0.496517
vt 0.621778 0.496517
vt 0.511188 0.918238
vt 0.621778 0.918238
vt 0.000000 0.000000
vt 0.000000 0.000000
vt 0.000000 0.000000
vt 0.000000 0.000000
vt 0.000000 0.000000
vt 0.000000 0.000000
vt 0.000000 0.000000
vt 0.000000 0.000000
vn -0.9996 0.0000 -0.0265
vn 0.9996 0.0000 0.0265
vn -0.0265 0.0000 0.9996
vn 0.0265 0.0000 -0.9996
vn 0.0000 1.0000 0.0000
vn 0.0000 -1.0000 -0.0000
g Assem1_-_wooden_case_part-1.001_Assem1_-_wooden_case_part-1.001_Material.003
usemtl Material.003
s off
f 1/1/1 2/2/1 3/3/1
f 3/3/1 2/2/1 4/4/1
f 3/3/1 4/4/1 5/5/1
f 5/5/1 4/4/1 6/6/1
f 7/7/2 8/8/2 9/9/2
f 9/9/2 8/8/2 10/10/2
f 9/9/2 10/10/2 11/11/2
f 11/11/2 10/10/2 12/12/2
f 6/13/3 4/14/3 8/15/3
f 8/15/3 4/14/3 10/16/3
f 3/17/4 5/18/4 9/19/4
f 9/19/4 5/18/4 7/20/4
f 7/21/5 5/22/5 8/23/5
f 8/23/5 5/22/5 6/24/5
f 13/25/1 14/26/1 15/27/1
f 15/27/1 14/26/1 16/28/1
f 17/29/3 13/30/3 18/31/3
f 18/31/3 13/30/3 15/32/3
f 19/33/2 17/34/2 20/35/2
f 20/35/2 17/34/2 18/36/2
f 14/37/4 19/38/4 16/39/4
f 16/39/4 19/38/4 20/40/4
f 14/41/5 13/42/5 21/43/5
f 17/44/5 19/45/5 22/46/5
f 21/43/5 23/47/5 14/41/5
f 14/41/5 23/47/5 10/48/5
f 14/41/5 10/48/5 19/45/5
f 19/45/5 10/48/5 4/49/5
f 19/45/5 4/49/5 22/46/5
f 22/46/5 24/50/5 17/44/5
f 17/44/5 24/50/5 3/51/5
f 17/44/5 3/51/5 13/42/5
f 13/42/5 3/51/5 9/52/5
f 13/42/5 9/52/5 21/43/5
f 20/53/6 18/54/6 16/55/6
f 16/55/6 18/54/6 15/56/6
f 22/57/2 25/58/2 24/59/2
f 24/59/2 25/58/2 26/60/2
f 10/61/4 23/62/4 12/63/4
f 12/63/4 23/62/4 27/64/4
f 12/63/4 27/64/4 2/65/4
f 2/65/4 27/64/4 25/66/4
f 2/65/4 25/66/4 4/67/4
f 4/67/4 25/66/4 22/68/4
f 3/69/3 24/70/3 1/71/3
f 1/71/3 24/70/3 26/72/3
f 1/71/3 26/72/3 11/73/3
f 11/73/3 26/72/3 28/74/3
f 11/73/3 28/74/3 9/75/3
f 9/75/3 28/74/3 21/76/3
f 27/77/5 28/78/5 25/79/5
f 25/79/5 28/78/5 26/80/5
f 21/81/1 28/82/1 23/83/1
f 23/83/1 28/82/1 27/84/1
f 11/85/6 12/86/6 1/87/6
f 1/87/6 12/86/6 2/88/6
g Assem1_-_wooden_case_part-1.001_Assem1_-_wooden_case_part-1.001_Material.019
usemtl Material.019
f 29/89/6 30/90/6 31/91/6
f 31/91/6 30/90/6 32/92/6
f 33/93/1 29/89/1 34/94/1
f 34/94/1 29/89/1 31/91/1
f 35/95/5 33/93/5 36/96/5
f 36/96/5 33/93/5 34/94/5
f 30/90/2 35/95/2 32/92/2
f 32/92/2 35/95/2 36/96/2
f 33/93/4 35/95/4 29/89/4
f 29/89/4 35/95/4 30/90/4
f 36/96/3 34/94/3 32/92/3
f 32/92/3 34/94/3 31/91/3
