# Blender v3.4.1 OBJ File: ''
# www.blender.org
mtllib Pared.mtl
o 13_obj_3002242_.005
v 56.764061 -0.000006 36.909847
v 56.764061 12.620646 36.909855
v 74.768906 12.620646 36.909855
v 74.768906 -0.000006 36.909847
v 56.764061 -0.000006 37.135216
v 74.768906 -0.000006 37.135216
v 74.768906 12.620646 37.135223
v 56.764061 12.620646 37.135223
vn 0.0000 0.0000 -1.0000
vn 0.0000 -0.0000 1.0000
vn 0.0000 -1.0000 -0.0000
vn 1.0000 0.0000 0.0000
vn 0.0000 1.0000 0.0000
vn -1.0000 0.0000 0.0000
g 13_obj_3002242_.005_13_obj_3002242_.005_Material.001
usemtl Material.001
s off
f 1//1 2//1 3//1
f 3//1 4//1 1//1
f 5//2 6//2 7//2
f 7//2 8//2 5//2
f 1//3 4//3 6//3
f 6//3 5//3 1//3
f 4//4 3//4 7//4
f 7//4 6//4 4//4
f 3//5 2//5 8//5
f 8//5 7//5 3//5
f 2//6 1//6 5//6
f 5//6 8//6 2//6
